<svg version="1" xmlns="http://www.w3.org/2000/svg" width="1509.333" height="1509.333" viewBox="0 0 1132.000000 1132.000000"><path d="M788 .7c-1.2.5-14 13.1-14 13.9 0 .1-2.6 2.9-5.7 6.2-5.4 5.5-22.1 23.1-41.4 43.6-4.6 4.9-10.4 11-12.9 13.6-2.5 2.6-10.1 10.7-17 18-6.9 7.3-14.3 15.2-16.5 17.5-12.2 12.7-27.1 28.8-27.7 29.8-.5 1-4.2 14.7-5.3 19.7-.4 1.9-2.6 11.1-3 13-.3.8-1.1 4-1.8 7-2.2 8.4-9.8 39.6-10.1 41.2-.1.7-.5 1.9-.9 2.5-.5.7-.6 1.3-.4 1.3.3 0-.8 4.8-2.3 10.7-1.5 6-2.5 11.1-2.1 11.5.5.6 10.3 1.3 34.8 2.3 4.6.2 8.5 0 8.7-.4.3-.4.8-2.1 1.1-3.7.8-3.9 1.3-5.9 1.5-5.9.1 0 .3-.9.5-2 .3-1.1 2.5-10.1 5.1-20 2.5-9.9 4.8-18.8 5-19.8.6-2.7 1.1-4.4 3.9-15.7 1.5-5.8 2.8-11 2.9-11.5.1-.6.5-1.9.8-3 .3-1.1.9-3.2 1.2-4.7.3-1.5 1.8-4 3.2-5.5 1.4-1.5 9.2-9.7 17.2-18.2 8.1-8.5 16.3-17.1 18.2-19.1 1.9-2.1 10.7-11.3 19.5-20.5 8.8-9.3 18-19 20.5-21.6 16.9-17.8 34.6-36.4 40.8-42.8 4-4.2 7.5-8.6 7.8-9.7 2.4-9.3-22.4-31-31.6-27.7zM661.3 292.6c-.3.9 0 2 .8 2.4 3.7 2.3-3 3.3-23.1 3.4-9.1 0-18.5-.2-21-.6-2.5-.4-4.8-.7-5.2-.7-.4-.1-.7-1.1-.5-2.4.2-2.6-3-3.1-4.6-.6-2.7 4.3 1.6 8.5 9.8 9.7 9.9 1.3 38.2.4 45-1.5 5.4-1.5 7-5.8 3.3-9.3-2.6-2.4-3.7-2.5-4.5-.4zM812.6 307.1c-1.8 1.1-16.9 6.8-19.6 7.4-16.9 4-24.3 5.6-28 6.1-2.5.3-4.7.7-5 .9-.3.2-2.9.6-5.9 1-3 .4-6.2.8-7.1 1-1.5.3-4.3.7-15 2-1.4.2-5.4.6-9 1-3.6.3-7.8.8-9.5 1-5.6.7-18.2 1.8-37.4 3-52.2 3.4-151.9 3.9-207.6 1.1-11.1-.6-29-1.7-34-2.1-2.7-.3-7.9-.7-11.5-1-6.6-.5-13-1.1-20.7-2-2.4-.3-6.4-.7-9-1-2.7-.3-6.1-.7-7.8-1-1.6-.2-4.8-.7-7-1-2.2-.3-5.6-.8-7.5-1.1-1.9-.4-4.5-.8-5.7-1-5.7-1-8-1.4-14.8-2.8-10.6-2.2-28.8-7.9-32.2-10.1-3.1-2.1-5.6-1.9-4.9.2.3 1 .8 4.9 1.1 8.8.7 7.6 1.1 11.7 1.9 18 .3 2.2.8 6.7 1.1 10 .3 3.3.8 8.2 1.1 11 .9 7.9 1.4 12.6 1.9 19 .3 3.3.7 7.3.9 9 .3 1.6.8 6.4 1.1 10.5.4 4.1.9 8.2 1 9 .2.8.6 5.1 1 9.5s.9 9.3 1.1 11c.2 1.6.6 5.7.9 9 .3 3.3.8 7.8 1 10 .3 2.2.7 6.2 1 9 .3 2.7.7 6.8 1 9 .2 2.2.7 7.1 1.1 11 .3 3.8.8 8.5 1 10.2.9 7 1.3 11 1.9 16.8.9 9.6 1.5 15.7 2 20.7.3 2.7.7 6.9 1 9.5 1.1 11.4 1.7 16 2.1 18.8.2 1.6.6 5.9.9 9.5.3 3.6.7 7.8.9 9.5.2 1.6.7 6.1 1.1 10 .3 3.8.8 7.1 1 7.3.1.2 1.5-3 3-7 3.2-8.4 4.2-11.2 6-15.3.7-1.7 2.5-5.9 4-9.5 6.3-14.8 18.6-38.5 23.2-44.6 1.3-1.7 2.3-3.6 2.3-4.3 0-.6.7-1.4 1.5-1.7.8-.4 1.5-1 1.5-1.5 0-.6.4-1.5 1-2.2.5-.7 3.3-4.1 6.2-7.7 6.7-8.5 20.5-22 22.4-22 .3 0 2-1.1 3.7-2.4 1.8-1.4 6.6-3.8 10.8-5.5 20.6-8.2 35.6-5.2 51.5 10.6 6 5.9 13.3 16.8 13.8 20.5.1.3.4 1 .9 1.4.4.4.7 2.9.7 5.5 0 7-2.9 10.1-10.2 10.7-5.4.4-5.5.3-8.9-3.6-1.9-2.2-4.7-6.5-6.3-9.6-1.6-3.1-3.3-5.6-3.8-5.6-.4 0-.8-.7-.8-1.5s-1.6-2.7-3.5-4.2c-8.8-7.1-17.3-5.9-35 5-6.6 4.1-18.2 18.1-27 32.7-2.2 3.6-4.2 6.7-4.5 7-1.7 1.5-20 38.8-20 40.6 0 .3-.6 2-1.4 3.7-4.3 9.3-9 26-10.4 36.7-1.8 14.2.3 26.3 5.6 32 2.4 2.6 9.8 3.6 14.8 2 11-3.5 32.2-20.8 43.6-35.6 1.3-1.6 2.9-3.5 3.6-4.3 1.6-1.6 5.9-8.2 8.2-12.6 1.5-2.7 7.9-21.9 8.4-24.9.1-.6 1.6-4.7 3.4-9.1 2.8-7 7.9-14.3 10-14.6.4 0 1.5-.2 2.4-.4 1-.2 2 .1 2.4.6.3.5.9.7 1.3.4 1.2-.7 4.1 2.8 4.7 5.6 1.3 5.5 0 16.3-3.1 27.1-.3 1-.7 2.6-.9 3.6-.8 3.7-5.8 19.9-7.1 23.2-2.8 7.2-14.8 48.1-14.8 50.7 0 .7-.3 1.3-.7 1.3-.3 0-.6.8-.7 1.8-.1 1.8-4.9 19.4-6 22.2-.4.8-.7 1.7-.8 2-.1.3-.4 1.2-.8 2-.3.8-1.3 3.5-2.2 6-2.4 6.6-6.6 12.3-10.4 14.2-3.2 1.6-3.6 1.6-6.2.1-5.4-3.2-5.4-13.3-.1-31.3.9-3 1.6-5.7 1.7-6 0-.3.3-1 .6-1.5.4-.6 1-2.4 1.4-4 .9-3.2.9-3.3 1.7-5.5.3-.8 1.3-4.2 2.2-7.5 1-3.3 2-6.8 2.3-7.9.8-2.8-.9-1.7-8.9 5.9-6.2 5.9-12.7 11.7-17.3 15.3-3 2.3-11.7 7.2-13 7.2-.7 0-1.6.4-1.9.9-.6.9-7.4 2.7-13.1 3.4-4.6.6-15.6-1.2-19.4-3.2-2.5-1.4-3.1-.4-2.5 4.5.8 7.2 1.2 10.9 1.9 17.9.3 3.8.8 8.8 1.1 11 .2 2.2.6 6.2.9 9 .3 2.7.7 6.8.9 9 .5 3.9 1.4 13.2 2.2 20.5.9 9.4 1.5 14.8 1.8 17.5.4 3.2 1.5 14 2.2 21.5.2 2.5.6 6.5 1 9 .3 2.5.7 6.5 1 9 .7 8.9 1.3 15 3 29.5.6 5.8 1.1 10.7 1.3 13.2.1 1.8 10.4 8 19.4 11.7 2 .9 5.2 2.2 7 3 2.7 1.2 6.6 2.6 8.7 3.1.3.1 1.2.4 2 .8 8.3 3.2 23.7 7.1 44.5 11.3 4.5.9 19.3 3.3 24 3.9 2.8.3 6.4.8 8 1 7.1 1 17.6 1.9 35 3.2 10.8.7 78.7.7 90 0 4.4-.3 11.1-.9 14.9-1.2 3.9-.4 8.8-.9 11-1.1 2.3-.1 5.7-.5 7.6-.8 1.9-.2 6.2-.8 9.5-1.1 5.9-.7 7.6-1 12.5-2 1.4-.3 4.1-.7 6-.9 1.9-.3 4.6-.8 6-1.1 2.4-.5 4.3-.9 10.1-2 7.6-1.4 30.6-7.9 39.1-10.9 11.2-4 22.6-9.2 28.4-12.8 3.8-2.4 4-2.9 4.3-7.6.1-2.8.4-6.1.7-7.4.2-1.3.7-4.8.9-7.8.3-3 .8-7.1 1-9 .2-1.9.7-5.6 1-8.2.3-2.7.7-6.7 1-9 .2-2.4.7-6.3 1-8.8.2-2.5.7-7 1-10 .3-3 .7-6.6 1-8 .2-1.4.7-5.5 1-9.2.3-3.7.7-7.5.9-8.5.2-1 .7-5.2 1-9.4.4-4.2.9-8.7 1.1-10 .2-1.3.6-5.1 1-8.4.6-6 1.1-10.5 2-18 .3-2.2.7-6.5 1-9.5.3-3 .8-7 1.1-8.9.2-1.8.7-5.9 1-9 .7-6.8 1-9.9 1.9-17.1.3-3 .8-7.5 1-10 .2-2.5.6-5.5.9-6.8.6-2.7-.4-2.8-3.2-.2-4.5 4.2-19.1 13.5-28.6 18.2-16.7 8.1-32.2 10.7-40.2 6.5-5.8-3-9.1-13.1-7.1-21.9 1.2-5.7 8.8-17.8 17.2-27.3 1.5-1.7 8.2-8.7 15.1-15.7 13.7-14.2 15.9-17 15-19.4-.6-1.6-3.8-1.6-11.6 0-6.2 1.3-16.8 7.7-23 13.9-6.3 6.3-11 11.5-11 12.2 0 .2-1.9 3.2-4.2 6.7-2.3 3.5-4.3 6.9-4.4 7.7-.2.8-.6 1.7-1.1 2-1.2.9-7.3 13.1-7.3 14.7 0 .8-.4 1.4-1 1.4-.5 0-1 .4-1 .9s-1.3 3.8-2.9 7.3c-3.3 7.2-5.8 13.2-13.7 32.5-7.5 18.4-18.3 41.9-20.6 44.8-.4.5-2.6 3.4-4.8 6.2-4.9 6.4-8.8 8.7-12.4 7.3-1.4-.5-2.9-1.7-3.4-2.7-1.9-3.7-.2-15.7 3.3-23.8.7-1.7 1.8-4.6 2.6-6.5 1.3-3.7 4.2-10.3 9-20.8 1.6-3.5 2.9-6.5 2.9-6.7 0-.2 1.3-3.2 2.9-6.7 7.5-16.4 11.8-28.4 9.8-27.1-.7.4-3.7 2.6-6.7 4.8-3 2.3-6.2 4.5-7 4.9-1.5.7-4.4 2.4-7 4.1-.8.5-1.7 1-2 1.1-.3 0-3 1.2-6 2.7-6.6 3.1-15.1 4.6-20.3 3.5-3.7-.8-9.5-4.4-9.6-6.1-.2-1.7-3.4-5.8-4-4.9-.3.5-3.2 2.4-6.3 4.2-18 10-35.1 8.5-39.9-3.7-1.3-3.1-2-8-2-13.3 0-1.9-.3-2.8-.6-2-.3.8-.9 1.7-1.2 2-.4.3-2.3 2.7-4.3 5.5-7.9 10.8-19 19-28.8 21.2-4.7 1.1-13 .6-17.4-1.1-3.8-1.5-11.2-7.6-9.2-7.6.5 0 .3-.7-.4-1.6-.8-.9-1.4-4.8-1.6-9.7-.2-7.3.1-10.5 2.2-22.2.3-1.7 1.1-3.6 1.6-4.3.6-.6.8-1.2.5-1.2-.7 0 5.1-16.5 8.4-23.5 1.2-2.8 2.3-5.2 2.4-5.5.4-1.8 6.9-13.4 9.9-17.9 2-2.9 3.6-5.5 3.6-5.7 0-.9 5.6-6.7 8.2-8.6 2.7-1.9 2.9-1.9 5.8-.1 2 1.1 3 2.6 3.1 4.3.2 4.9-.3 8.5-1.4 9.9-.7.8-1.1 1.5-.9 1.5.6.2-1 4-5.3 13.1-9.6 20.1-16 37.8-17.4 47.7-.7 5.3-.6 6.1 1.5 8.3 1.3 1.4 3.2 2.5 4.2 2.5 2.8 0 10.7-4.5 15.4-8.7 9.8-8.9 23.9-25.1 26.1-30.1.6-1.5 1.5-3 2-3.3.4-.3.9-1.4 1.1-2.5.2-1 2.5-6.2 5.1-11.4 2.5-5.2 5.4-11.1 6.3-13 .9-1.9 1.9-3.7 2.2-4 .3-.3 1.2-1.8 2-3.3 2.7-5.3 9.8-11.7 12.9-11.7 1.6 0 3.3.6 3.9 1.2 2.2 2.8-.5 14.3-6.9 29.3-.7 1.6-1.3 3.2-1.4 3.5-.5 1.5-2.7 6.8-3.5 8.5-1.5 3.2-6.9 18.3-7.6 21.3-3.2 14.4-2 21.1 4 22.6 3.1.8 13.4-2.5 18-5.7 4.3-3.1 9.3-8.6 10-11.1.2-1.2 1.2-4.8 2.1-8.1.9-3.3 1.7-6.7 1.9-7.5.5-2 4.6-15.1 5.3-17 .4-.8.7-1.7.8-2 .4-1.9 3.1-9.1 4.3-12 .9-1.9 1.7-4 1.8-4.5.1-.6 2.6-6.6 5.4-13.5 2.8-6.9 5.3-13.2 5.5-14 .7-2.4 9.4-24.3 10.5-26.2.6-1 1-2.3 1-2.9 0-.6.6-2.5 1.4-4.2.8-1.8 3.7-8.5 6.4-15 10.8-25.2 18.1-34.1 24.3-29.4 7.3 5.6 4.6 23.3-7.8 50.5-1.8 4-3.3 7.9-3.3 8.6 0 .6-.5 1.7-1.2 2.4-.6.6-1.3 1.7-1.4 2.4-.4 2-7.6 18.2-8.5 19.2-.5.6-.9 1.6-.9 2.3 0 .7-1.1 3.6-2.4 6.5-1.3 2.9-2.6 6-2.9 6.8-.3.8-3 7.5-6 14.7-3.1 7.3-5.3 13.3-5 13.3.3 0 .1.6-.5 1.2-1 1.4-8.8 24-9.7 28.6-1.5 6.7-1.6 11.8-.3 13.5 1.2 1.6 1.7 1.6 8.8-.8 4.1-1.4 8.3-2.7 9.2-3 1-.2 5-2.1 8.9-4.1 7.8-4.1 19.6-15.2 25.4-23.9 3.8-5.8 8.9-17.9 12.5-29.5 1.2-4.1 2.5-8 2.9-8.5.5-1 .7-1.5 1-3.4 0-.4 1.4-2.2 3-3.8 3.2-3.4 6.9-3.5 11.1-.3 1.9 1.4 2.5 2.8 2.6 6.6.1 2.7-.2 5.8-.7 7.1-1.1 3 .4 3 2.8-.1 4.4-5.5 26.2-18.1 34.8-20 6.7-1.6 13.1-1.4 16.9.5 11.1 5.4 13.5 18.5 6.2 33.3-2 4.1-4.3 8.1-5 8.8-.7.7-1.7 2-2.2 2.9-1.3 2.3-7.3 9.6-11.4 13.9-1.9 2.1-8 8.4-13.6 14.1-5.5 5.7-10.3 11.2-10.7 12.2-.6 1.6-.2 1.7 3.6 1.3 11-1.3 28.3-9.9 42.2-21 6.2-4.9 16.5-15.4 16.6-16.9.1-.7.2-2.3.4-3.7 2.4-22.6 3.1-29.1 4-36 .2-2.5.7-6.5.9-9 .3-2.5.7-6.3 1-8.5 1.2-10.4 2.1-18.8 3-27.5.8-8 1.6-14.5 2.1-18.5.2-1.7.7-5.5 1-8.5.3-3 .8-7.3 1-9.5.6-4.8 1.3-11 2-18.5.4-3 .8-6.9 1-8.5.2-1.7.7-5.7 1-8.9.3-3.3.8-7.3 1-9 .6-4.2 1.3-11 2-17.6.3-3 .8-7.3 1-9.5.3-2.2.7-6.3 1-9 .2-2.8.6-6.4.9-8 .3-1.7.8-5.9 1.1-9.5.3-3.6.8-8.3 1.1-10.5.3-2.2.7-6 1-8.5.6-6.1 2-18.9 3-26.8.3-2.6.7-6.7 1-9.2.2-2.5.6-6.5 1-9 1.7-13.9 2.3-22 1.6-22-.4 0-1.5.5-2.6 1.1z"/><path d="M384.1 869.8c1.2 2 3.3 5.7 4.7 8.2 1.4 2.5 3.8 6.4 5.3 8.7 1.6 2.3 2.9 4.4 2.9 4.7 0 .3 1.6 3 3.5 6s3.5 5.8 3.5 6.1c0 .4 1 2.1 2.3 3.8 3 4.3 4.5 6.7 5.9 9.7.7 1.4 1.6 2.8 2.1 3.1.5.3.9 2.7 1 5.2.1 2.6.5 4.7.9 4.7s.3 1.3-.2 2.9c-.4 1.6-.6 3.2-.3 3.4.2.3.6 2.5.8 4.9.5 6.3 1.6 22.1 2 30.8.3 4.1.7 10.4 1 14 .2 3.6.7 10.5 1 15.5.3 4.9.7 11.2 1 14 .3 2.7.8 9.5 1.1 15 .3 5.5.7 12.2.9 15 1.6 22.2 1.6 22.2 3 44 .8 10.9 1.9 13.9 6.5 17.8 4.5 3.8 19.6 10.6 27 12.2.8.2 1.5.4 1.5.5 0 .1.7.3 1.5.5.8.1 3.3.8 5.5 1.3 2.2.6 5.4 1.4 7 1.7 18.5 3.3 19.9 3.5 33 5 33.1 3.9 80.9 3.9 114.5 0 13.8-1.6 19.6-2.5 30.5-4.7 5.5-1.1 10.5-2.1 11.2-2.2.7-.1 1.6-.5 1.9-.9.4-.4 1.6-.7 2.6-.7 3.1 0 21-7 25.3-9.8 3.6-2.5 9.4-7.9 9.6-9.2.3-1.7.8-7.9 1.3-18.5.4-6.6.9-14.9 1.2-18.5.5-7.5 1.2-19.7 1.9-32.5.2-5 .7-12.6 1-17 .3-4.4.8-11.6 1-16 .5-8.1 1.1-17.3 2-32 .8-12 1.5-24.8 2-36.5.5-11.8 1.2-16 2.6-16 .5 0 .9-.4.9-1 0-.5 1.8-3.9 4-7.5s4-6.7 4-7c0-.3 1.6-2.9 3.5-5.9 1.9-3 3.5-5.8 3.5-6.1 0-.3 1.2-2.4 2.7-4.8 1.5-2.3 3.3-5.1 3.9-6.2.6-1.1 2-3.7 3.2-5.8 1.2-2 2-3.7 1.8-3.7-.2 0-3.7 1.1-7.7 2.4-9.9 3.3-26.8 8-35.4 9.9-3.8.9-9.5 2.1-12.5 2.8-3 .7-6.2 1.3-7 1.5-.8.1-5.5.9-10.5 1.7-9.7 1.7-16.4 2.7-28 4.2-13.3 1.7-26.9 2.9-46 4.1-10.4.6-58.4.6-69.5-.1-11.8-.7-22.1-1.4-27-1.9-2.5-.3-7.4-.8-11-1.2-3.6-.3-7.2-.8-8.1-.9-.9-.2-4-.6-7-1-8.2-1-23.6-3.4-31.4-5-3.8-.8-8.2-1.6-9.8-1.9-1.5-.3-3.7-.8-5-1.2-1.2-.4-3.1-.8-4.2-.9-1.1-.1-2.7-.5-3.5-.8-.8-.3-2.6-.8-4-1-1.4-.3-5.9-1.5-10-2.6-4.1-1.2-8.2-2.3-9-2.5-.8-.3-4.8-1.6-8.8-2.9l-7.3-2.5 2.2 3.6z"/></svg>